<?xml version="1.0" encoding="utf-8"?>
<!-- Generator: Adobe Illustrator 24.3.0, SVG Export Plug-In . SVG Version: 6.00 Build 0)  -->
<svg version="1.1" id="Layer_1" xmlns="http://www.w3.org/2000/svg" xmlns:xlink="http://www.w3.org/1999/xlink" x="0px" y="0px"
	 viewBox="0 0 504 108" style="enable-background:new 0 0 504 108;" xml:space="preserve">
<style type="text/css">
	.st0{fill:#6D6E70;}
	.st1{fill:#EC008C;}
</style>
<path class="st0" d="M353.09,89.43c1.32,0,2.55,0.01,3.78-0.01c0.44-0.01,0.87-0.04,1.31-0.1c1.97-0.31,3.03-1.44,3.13-3.45
	c0.16-3.27,0.35-6.55,0.35-9.82c0-14.28-0.04-28.56-0.11-42.84c-0.01-2.44-0.17-4.88-0.29-7.31c-0.09-1.68-0.11-1.69-1.75-1.69
	c-1.68,0-3.36-0.01-5.03,0.01c-1.01,0.01-1.06-0.01-1.06-1c0-0.18,0.02-0.36,0.04-0.6c0.25-0.07,0.48-0.19,0.72-0.19
	c4.23,0.02,8.46,0.07,12.69,0.09c1.82,0.01,3.65-0.04,5.47-0.08c0.99-0.02,1.16,0.09,1.5,1.05c1.95,5.6,3.9,11.2,5.86,16.8
	c2.64,7.52,5.29,15.03,7.93,22.55c0.61,1.75,1.17,3.52,1.77,5.28c0.06,0.17,0.16,0.32,0.27,0.54c0.46-0.37,0.53-0.88,0.69-1.33
	c0.94-2.68,1.84-5.37,2.78-8.05c1.82-5.18,3.68-10.35,5.48-15.53c2.28-6.56,4.53-13.14,6.79-19.7c0.04-0.1,0.08-0.2,0.12-0.31
	c0.46-1.27,0.46-1.22,1.82-1.22c4.89,0,9.77-0.03,14.66-0.06c0.76-0.01,0.95,0.13,0.98,0.81c0.03,0.77-0.18,0.97-0.93,0.96
	c-1.24-0.02-2.48-0.03-3.72-0.02c-0.28,0-0.56,0.09-0.88,0.14c-0.02,0.31-0.05,0.56-0.05,0.8c0,21.09-0.01,42.19-0.01,63.28
	c0,1.18,0.04,1.24,1.22,1.24c1.17,0,2.33-0.03,3.5-0.04c0.71,0,0.89,0.2,0.88,0.91c-0.01,0.64-0.19,0.83-0.86,0.83
	c-5.73-0.01-11.45-0.03-17.18-0.04c-1.68,0-3.36,0.02-5.03-0.01c-0.29,0-0.79-0.15-0.83-0.31c-0.09-0.44-0.04-0.93,0.08-1.36
	c0.04-0.13,0.51-0.19,0.78-0.19c1.31-0.01,2.63,0.01,3.94,0.01c0.8,0,0.9-0.1,0.9-0.85c0.03-14.86,0.06-29.73,0.09-44.59
	c0.01-2.95,0.01-5.9,0.01-8.85c0-0.04,0-0.07,0-0.11c-0.01-0.36,0.03-0.81-0.44-0.87c-0.49-0.06-0.53,0.42-0.64,0.74
	c-1.74,5.13-3.46,10.27-5.22,15.4c-1.66,4.85-3.38,9.68-5.06,14.53c-1.9,5.46-3.8,10.93-5.69,16.4c-0.91,2.61-1.8,5.22-2.72,7.83
	c-0.07,0.21-0.28,0.36-0.54,0.68c-0.19-0.44-0.33-0.72-0.44-1.02c-1.69-4.69-3.39-9.37-5.05-14.07c-0.81-2.3-1.55-4.62-2.35-6.92
	c-0.6-1.72-1.28-3.4-1.89-5.12c-2.11-5.93-4.2-11.87-6.29-17.8c-1.32-3.74-2.65-7.47-3.98-11.21c-0.05-0.14-0.08-0.3-0.17-0.4
	c-0.11-0.12-0.29-0.26-0.43-0.25c-0.15,0.01-0.36,0.16-0.41,0.29c-0.08,0.23-0.08,0.5-0.08,0.75c0,16.8,0,33.59,0.01,50.39
	c0,0.65,0.08,1.31,0.16,1.95c0.17,1.38,1,2.28,2.29,2.65c1.11,0.32,2.27,0.49,3.42,0.63c0.75,0.09,1.53-0.03,2.29-0.03
	c0.6,0,0.76,0.17,0.8,0.78c0.04,0.68-0.12,0.94-0.73,0.95c-1.28,0.02-2.55-0.01-3.83-0.01c-4.52,0-9.04-0.01-13.56,0
	c-1.27,0-1.3-0.01-1.27-1.26C353.04,89.92,353.06,89.78,353.09,89.43"/>
<path class="st1" d="M280.3,69.48c0.49-0.05,0.94-0.09,1.48-0.14c0.05-1.17,0.16-2.29,0.14-3.4c-0.2-7.88,0.09-15.77-0.1-23.71
	h-1.69c-0.04,0.39-0.16,0.82-0.1,1.22c0.29,2.05-0.33,3.97-0.81,5.91c-0.14,0.56-0.35,1.1-0.57,1.64c-0.49,1.19-1.6,1.83-2.47,2.69
	c-0.14,0.14-0.39,0.18-0.59,0.26c-1.71,0.64-3.5,0.9-5.32,0.92c-2.08,0.01-4.16,0.02-6.24,0.03c-0.22,0-0.44-0.01-0.65-0.04
	c-0.45-0.05-0.74-0.27-0.77-0.76c-0.04-0.8-0.12-1.6-0.12-2.4c0.01-6.96,0.03-13.92,0.04-20.88c0-1.82-0.04-3.64-0.06-5.46
	c-0.01-0.78,0.18-0.99,0.95-0.99c4.3,0.02,8.61,0.1,12.91,0.03c1.82-0.03,3.61,0.23,5.41,0.37c0.51,0.04,1,0.41,1.52,0.52
	c1.22,0.25,2.14,0.96,3.14,1.65c2.06,1.42,3.09,3.44,3.81,5.71c0.74,2.35,0.98,4.77,1.1,7.21c0.01,0.28,0.08,0.56,0.11,0.79
	c0.12,0.09,0.18,0.16,0.24,0.17c1.32,0.13,1.36,0.13,1.37,1.48c0.03,3.1,0.01,6.19,0.01,9.29c0,12.53,0.01,25.07,0.01,37.6v1.94
	c-0.44,0.05-0.75,0.11-1.06,0.11c-7.19,0-14.38,0-21.56,0c-0.29,0-0.58-0.01-0.87-0.03c-0.49-0.03-0.76-0.24-0.88-0.78
	c-0.2-0.91-0.26-0.93-1.18-0.94c-1.2-0.02-2.41,0.01-3.61,0c-1.14-0.01-1.33-0.2-1.38-1.33c-0.02-0.51,0.03-1.02,0.03-1.53
	c0.01-9.07,0.01-18.14,0.01-27.22c0-0.44-0.05-0.87-0.07-1.31c-0.03-0.48,0.19-0.78,0.68-0.8c1.34-0.06,2.68-0.11,4.02-0.14
	c1.16-0.03,2.35-0.15,3.49-0.02c1.78,0.21,3.64,0.32,5.19,1.34c0.77,0.51,1.49,1.2,2.01,1.97c0.85,1.26,1.61,2.61,1.63,4.22
	c0,0.25,0,0.52,0.09,0.76c0.41,1.15,0.6,2.32,0.54,3.54C280.1,69.11,280.22,69.27,280.3,69.48"/>
<path class="st1" d="M210.93,47.91c0.63-0.66,1.18-1.22,1.7-1.81c0.95-1.09,1.86-2.21,2.8-3.3c1.01-1.17,2.03-2.34,3.06-3.5
	c1.82-2.04,3.63-4.09,5.5-6.08c1.64-1.74,3.38-3.38,5.05-5.09c1.18-1.2,2.6-1.97,4.12-2.67c2.33-1.06,4.77-1.06,7.23-1.1
	c0.18,0,0.36,0.01,0.55,0.01c0.77-0.01,0.89-0.11,1.03-0.81c0.17-0.86,0.17-0.87,1.01-0.9c0.61-0.02,1.22-0.01,1.76-0.01
	c0.11,0.13,0.18,0.18,0.2,0.24c0.36,1.52,0.37,1.52,1.98,1.5c0.77-0.01,1.53-0.02,2.3-0.02c0.83,0,1.01,0.15,1.02,1.04
	c0.02,1.38-0.02,2.77-0.02,4.15c0,19.35,0.01,38.69,0,58.04c0,2.26-0.19,1.83-1.86,1.87c-0.69,0.02-1.39-0.01-2.08,0
	c-0.92,0.01-0.98,0.08-1.02,1c-0.01,0.18-0.02,0.35-0.03,0.65c-0.51,0.03-0.99,0.06-1.56,0.1c-0.09-0.6-0.16-1.12-0.26-1.75
	c-0.77,0-1.49,0-2.21,0c-0.4,0-0.8,0.01-1.2,0.01c-2.69,0-2.67-0.01-4.07-2.27c-1.01-1.63-2.06-3.24-3.09-4.86
	c-1.05-1.65-2.08-3.31-3.14-4.96c-1-1.55-2.03-3.08-3.03-4.64c-0.65-1.01-1.24-2.05-1.89-3.05c-1.25-1.95-2.53-3.88-3.78-5.84
	c-0.78-1.22-1.51-2.46-2.29-3.68c-0.97-1.52-1.98-3.03-2.95-4.55c-0.91-1.44-1.8-2.89-2.7-4.34c-0.17-0.28-0.34-0.56-0.51-0.83
	C212.02,49.64,211.5,48.82,210.93,47.91"/>
<path class="st0" d="M176.7,57.08c-0.09,5.3-0.93,10.45-2.84,15.39c-1.97,5.12-4.73,9.76-8.77,13.55c-2.6,2.43-5.47,4.48-8.9,5.58
	c-3.76,1.2-7.57,1.33-11.42,0.4c-4.33-1.04-7.81-3.43-10.91-6.53c-2.16-2.16-3.96-4.58-5.43-7.23c-2.71-4.88-4.46-10.11-5.22-15.65
	c-0.23-1.66-0.4-3.33-0.45-5c-0.05-1.56,0.07-3.13,0.18-4.69c0.24-3.32,0.92-6.56,2.03-9.69c2.06-5.84,5.11-11.1,9.63-15.42
	c1.64-1.56,3.43-2.97,5.41-4.05c4.1-2.25,8.43-3.21,13.15-2.36c4.71,0.85,8.55,3.15,11.92,6.41c3.92,3.8,6.67,8.32,8.6,13.39
	c1.36,3.56,2.3,7.2,2.64,11C176.45,53.82,176.57,55.45,176.7,57.08 M134.92,58.43c0.08,0,0.15,0,0.23,0c0,1.31-0.01,2.62,0,3.93
	c0.03,3.5,0.42,6.99,0.98,10.43c0.42,2.57,1.15,5.1,1.88,7.62c0.68,2.35,1.74,4.55,3.33,6.46c1.78,2.15,3.93,3.67,6.78,4
	c3.42,0.39,6.43-0.42,8.85-2.99c1.62-1.72,2.81-3.71,3.63-5.92c1.52-4.1,2.11-8.39,2.58-12.69c0.33-3,0.38-6.03,0.44-9.05
	c0.11-5.28,0.07-10.56-0.67-15.8c-0.51-3.64-1.15-7.25-2.16-10.8c-0.72-2.52-1.88-4.82-3.48-6.87c-1.43-1.83-3.07-3.45-5.52-3.82
	c-0.89-0.14-1.82-0.19-2.72-0.14c-1.58,0.1-3.1,0.47-4.43,1.39c-2.2,1.53-3.87,3.53-5.04,5.92c-1.29,2.62-2.08,5.42-2.76,8.25
	c-0.72,2.98-1.14,6.01-1.39,9.05C135.13,51.07,135.08,54.75,134.92,58.43z"/>
<path class="st0" d="M60.97,56.43c-0.06-7.5,2.04-14.39,5.74-20.82c1.73-3.01,3.86-5.75,6.44-8.1c3.42-3.12,7.29-5.45,11.94-6.22
	c2.7-0.44,5.38-0.25,8.01,0.46c5.87,1.59,10.2,5.28,13.74,10.05c3.71,5.01,5.99,10.64,7.19,16.71c0.92,4.67,1.17,9.39,0.51,14.12
	c-0.73,5.23-2.2,10.24-4.75,14.88c-2.7,4.93-6.25,9.12-11.1,12.1c-2.23,1.37-4.65,2.18-7.22,2.66c-3.92,0.73-7.69,0.18-11.36-1.2
	c-2.24-0.84-4.16-2.24-6-3.74c-4.28-3.49-7.16-7.99-9.35-12.99c-1.58-3.62-2.71-7.38-3.23-11.29
	C61.23,60.86,61.14,58.64,60.97,56.43 M102.02,57.41c-0.14-3.13-0.25-6.25-0.43-9.38c-0.09-1.56-0.2-3.13-0.47-4.67
	c-0.47-2.65-1.03-5.28-1.62-7.9c-0.76-3.42-2.11-6.56-4.38-9.29c-1.98-2.37-4.43-3.61-7.54-3.41c-2.12,0.14-4.08,0.74-5.72,2.16
	c-2.1,1.83-3.61,4.07-4.69,6.62c-1.63,3.85-2.43,7.93-3.05,12.03c-0.58,3.81-0.84,7.67-0.88,11.53c-0.07,6.89,0.21,13.75,1.72,20.51
	c0.76,3.38,1.61,6.74,3.52,9.69c1.89,2.92,4.3,5.15,7.95,5.56c3.2,0.36,6.05-0.37,8.44-2.68c2.28-2.2,3.66-4.89,4.52-7.85
	c0.95-3.25,1.59-6.57,1.92-9.95C101.71,66.08,101.92,61.75,102.02,57.41z"/>
<path class="st0" d="M479.92,91.15c-0.25,0.08-0.43,0.18-0.6,0.18c-17,0-33.99,0-50.99-0.01c-0.13,0-0.27-0.1-0.42-0.16v-1.51
	c0.6,0,1.14,0,1.68,0c0.84,0,1.68,0.01,2.52,0c0.73-0.01,0.86-0.15,0.92-0.9c0.01-0.22,0.01-0.44,0.01-0.66c0-20.8,0-41.6,0-62.41
	c0-0.22,0.01-0.44,0-0.66c-0.03-0.73-0.18-0.85-0.94-0.84c-1.24,0.01-2.48,0.01-3.72,0.01c-0.14,0-0.27-0.08-0.47-0.14v-1.6
	c1.09,0,2.13,0,3.18,0c5.62,0.01,11.24,0.04,16.85,0.04c9.45,0.01,18.9,0,28.34,0c0.87,0,1.75-0.04,2.62-0.07
	c0.76-0.02,0.85,0.04,0.92,0.85c0.05,0.54,0.06,1.09,0.07,1.64c0.03,4.66,0.06,9.32,0.08,13.99c0,0.07-0.04,0.14-0.11,0.34
	c-0.29,0.03-0.63,0.11-0.98,0.11c-0.74,0-0.79-0.07-0.9-0.78c-0.3-2.06-0.81-4.08-1.68-5.97c-1.49-3.2-3.86-5.58-7.22-6.76
	c-1.8-0.63-3.67-1.13-5.64-1.15c-5.65-0.04-11.31-0.14-16.96-0.21c-0.21,0-0.43,0-0.77,0c-0.05,0.34-0.12,0.64-0.12,0.95
	c0,9.47,0,18.94,0,28.42c0,1.13,0.02,1.15,1.18,1.11c2.48-0.08,4.96-0.15,7.43-0.27c3.27-0.15,5.68-2.2,6.49-5.35
	c0.45-1.74,0.64-3.5,0.75-5.28c0.02-0.28,0.08-0.56,0.13-0.91H463c0.04,0.35,0.1,0.66,0.1,0.98c0,8.02,0,16.03,0,24.04
	c0,0.83-0.11,0.95-0.79,0.98c-0.65,0.02-0.81-0.13-0.87-0.82c-0.09-1.09-0.18-2.17-0.28-3.26c-0.16-1.74-0.78-3.33-1.68-4.8
	c-0.78-1.29-1.99-2.04-3.44-2.31c-1.32-0.25-2.67-0.4-4.01-0.44c-2.07-0.07-4.15-0.02-6.2-0.02c-0.27,0.8-0.36,30.07-0.11,31.66
	c0.24,0.04,0.52,0.12,0.79,0.12c4.92-0.01,9.85-0.02,14.77-0.07c1.46-0.01,2.93-0.01,4.36-0.25c5.48-0.92,9.81-3.1,11.59-9.81
	c0.61-2.28,0.79-4.58,0.87-6.91c0.05-1.37,0.43-1.61,1.81-1.03V91.15z"/>
<path class="st0" d="M334.34,89.5c-0.7-2.24-1.34-4.32-2-6.4c-1.31-4.13-2.63-8.25-3.94-12.38c-0.59-1.86-0.57-1.85-2.51-1.86
	c-5.07-0.01-10.14-0.01-15.21-0.03c-0.86,0-1,0.04-1.28,0.87c-0.65,1.93-1.3,3.86-1.87,5.82c-0.88,3-1.71,6.02-2.55,9.03
	c-0.09,0.31-0.13,0.64-0.21,0.96c-0.57,2.28,0.54,2.97,2.04,3.46c1.19,0.38,2.49,0.48,3.74,0.64c0.57,0.08,1.16,0,1.75,0.01
	c0.67,0.01,0.81,0.16,0.82,0.85c0.01,0.67-0.13,0.84-0.83,0.84c-2.66,0.01-5.32,0.02-7.99,0.01c-2.88,0-5.76-0.01-8.64-0.02
	c-0.28,0-0.56-0.06-0.9-0.09v-1.49c0.89-0.1,1.72-0.27,2.54-0.29c2.53-0.07,4.15-1.38,5.09-3.63c1-2.39,1.71-4.87,2.4-7.36
	c0.44-1.57,0.97-3.12,1.44-4.69c1.02-3.42,2-6.85,3.03-10.26c1.45-4.8,2.95-9.59,4.41-14.39c0.96-3.17,1.89-6.35,2.84-9.51
	c0.49-1.64,1.04-3.26,1.53-4.89c0.72-2.4,1.4-4.82,2.13-7.22c0.61-2.01,1.27-4.01,1.92-6.06c0.96,0,1.83,0.02,2.71-0.01
	c0.61-0.02,0.92,0.26,1.1,0.83c0.53,1.74,1.09,3.47,1.65,5.2c1.76,5.39,3.55,10.78,5.3,16.17c0.7,2.14,1.31,4.31,1.99,6.46
	c0.41,1.28,0.89,2.54,1.31,3.82c0.93,2.87,1.85,5.75,2.77,8.62c1.11,3.46,2.2,6.93,3.33,10.39c1.72,5.25,3.46,10.5,5.19,15.75
	c0.29,0.89,0.36,0.95,1.31,0.97c0.84,0.02,1.68,0,2.52-0.01c0.84,0,1.02,0.15,1.02,0.88c0,0.65-0.17,0.81-0.99,0.81
	c-3.25,0-6.49-0.01-9.74-0.01c-4.38,0-8.76,0-13.13,0c-0.92,0-1.1-0.2-1-1.08c0.06-0.5,0.28-0.65,0.79-0.64
	c1.75,0.05,3.5,0.04,5.25,0.04C333.72,89.64,333.95,89.56,334.34,89.5 M318.68,40.55c-0.1-0.01-0.19-0.01-0.28-0.01
	c-2.69,8.77-5.39,17.54-8.1,26.39c0.35,0.07,0.59,0.15,0.83,0.15c5.07,0.01,10.14,0,15.2-0.01c0.26,0,0.52-0.1,0.86-0.18
	C324.32,58.02,321.5,49.29,318.68,40.55z"/>
<path class="st0" d="M53.03,68.47c0.48,0,0.73-0.01,0.98,0c0.38,0.02,0.6,0.23,0.63,0.62c0.01,0.14,0.01,0.29,0.01,0.44
	c0.01,6.99,0.01,13.99,0.02,20.98c0,0.18-0.03,0.36-0.05,0.69c-0.46,0.05-0.9,0.13-1.35,0.13c-9.19,0-18.38-0.02-27.57-0.02
	c-7.04,0-14.08,0.01-21.12,0.02c-0.88,0-1.09-0.11-1.17-0.64c-0.1-0.73,0.12-1.02,0.87-1.03c1.53-0.02,3.06,0,4.6,0
	c1.1,0,1.12-0.02,1.14-1.08c0.01-0.62,0.01-1.24,0.01-1.86c0-20.47,0-40.95,0.01-61.42c0-1.07-0.05-1.1-1.1-1.09
	C7.51,24.2,6.08,24.2,4.66,24.2c-1.26,0-1.39-0.19-1.09-1.65c0.31-0.03,0.66-0.09,1.01-0.09c7.59,0.01,15.17,0.02,22.76,0.03
	c0.29,0,0.58-0.06,0.87-0.07c0.62-0.01,0.78,0.15,0.81,0.75c0.04,0.77-0.11,1.01-0.77,1.02c-1.31,0.02-2.63-0.01-3.94-0.01
	c-0.82,0-1.65,0.03-2.55,0.05c0,2.15,0,4.15,0,6.15c0,17.89,0.01,35.77,0.01,53.66c0,1.53-0.01,3.06-0.02,4.59c0,0.87,0.08,1,0.89,1
	c4.6-0.01,9.19-0.01,13.79-0.08c1.64-0.02,3.28-0.16,4.91-0.31c2.83-0.26,5.4-1.17,7.45-3.23c1.45-1.46,2.25-3.29,2.81-5.23
	c0.92-3.21,1.33-6.48,1.38-9.81C53.01,70.18,53.02,69.39,53.03,68.47"/>
<path class="st1" d="M206.22,24.39c0.19-0.5,0.38-1.03,0.63-1.68h10.94c0.12,0.53,0.24,1.08,0.37,1.7c0.9,0,1.73,0,2.57,0
	c0.98,0,1.97-0.01,2.95,0.02c0.36,0.01,0.72,0.07,1.07,0.16c1.1,0.28,1.91,1.46,1.21,2.75c-1,1.84-2.24,3.5-3.74,4.99
	c-1.43,1.42-2.73,2.96-4.11,4.44c-1.48,1.58-2.98,3.13-4.46,4.71c-1.13,1.21-2.23,2.46-3.35,3.68c-1.24,1.36-2.5,2.7-3.75,4.05
	c-0.24,0.27-0.47,0.55-0.71,0.81c-0.95,1.04-1.9,2.07-2.86,3.1c-0.46,0.49-0.94,0.96-1.55,1.58c-0.09-0.38-0.17-0.57-0.17-0.76
	c-0.04-2.21-0.1-4.43-0.11-6.64c-0.01-1.31,0.06-2.62,0.07-3.93c0.01-5.17,0.01-10.34,0.01-15.5c0-0.84-0.06-1.67-0.06-2.51
	c0-0.93,0.08-0.98,1-0.98C203.47,24.4,204.78,24.39,206.22,24.39"/>
<path class="st1" d="M222.85,89.32c-0.67,0.06-1.16,0.14-1.66,0.15c-1.31,0.02-2.62,0-3.94,0c-1.1,0-1.13,0.03-1.2,1.16
	c-0.01,0.14-0.04,0.28-0.07,0.51c-0.33,0.03-0.64,0.08-0.96,0.08c-2.22,0.01-4.45,0.01-6.67,0c-1.07,0-1.08-0.01-1.22-1.07
	c-0.05-0.4-0.31-0.58-0.64-0.63c-0.39-0.06-0.8-0.07-1.2-0.07c-1.13,0-2.26,0.04-3.39,0.02c-0.71-0.01-0.8-0.16-0.79-0.85
	c0.04-3.6,0.09-7.21,0.11-10.81c0.02-3.53,0.02-7.06,0-10.59c-0.01-1.78-0.21-3.56-0.12-5.33c0.09-1.68-0.11-3.42,0.72-5.23
	c0.61,0.82,1.18,1.49,1.65,2.23c0.79,1.21,1.52,2.46,2.29,3.69c0.52,0.83,1.07,1.64,1.6,2.46c1.39,2.15,2.78,4.31,4.18,6.46
	c1.87,2.88,3.76,5.75,5.63,8.63c1.66,2.55,3.32,5.09,4.95,7.65C222.39,88.19,222.56,88.68,222.85,89.32"/>
<path class="st1" d="M183.31,56.86c0-5.28,0-10.56,0-15.83c0-5.13-0.01-10.26-0.01-15.39c0-0.22-0.01-0.44,0.01-0.65
	c0.03-0.39,0.25-0.6,0.64-0.6c1.42,0,2.84,0,4.27,0c0.44,0,0.69,0.2,0.72,0.64c0.04,0.62,0.1,1.24,0.1,1.85
	c0,19.51-0.01,39.03-0.02,58.55c0,1.12-0.09,2.25-0.12,3.37c-0.01,0.41-0.23,0.59-0.6,0.64c-0.14,0.02-0.29,0.03-0.44,0.03
	c-1.24,0-2.48,0.02-3.72,0c-0.7-0.01-0.82-0.15-0.82-0.84c0.01-1.13,0.03-2.26,0.03-3.38c-0.01-4.33-0.03-8.66-0.04-12.99
	C183.31,67.13,183.31,61.99,183.31,56.86"/>
<polygon class="st0" points="485.11,24.69 485.11,16.84 482.18,16.84 482.18,15.8 489.23,15.8 489.23,16.84 486.29,16.84 
	486.29,24.69 "/>
<path class="st0" d="M490.42,24.69v-8.9h1.76l2.1,6.3c0.19,0.59,0.34,1.03,0.42,1.32c0.1-0.32,0.26-0.8,0.48-1.43l2.14-6.19h1.58
	v8.9h-1.13v-7.44l-2.6,7.44h-1.06l-2.57-7.58v7.58H490.42z"/>
</svg>
